# xmcd
#
# Track frame offsets: 
#        150
#        18369
#        41010
#        66067
#        81844
#        98551
#        115522
#        138408
#        154293
#        175228
#        199952
#        221106
#        242491
#        265747
#        294684
#        312034
#        328258
#        342643
#
# Disc length: 4786 seconds
#
# Revision: 0
# Processed by: cddbd v1.5.2PL0 Copyright (c) Steve Scherf et al.
# Submitted via: ExactAudioCopy v1.3
#
DISCID=0a12b012
DTITLE=Various Artist - Akella Presents - vol. 153 - Electric Blues  
DTITLE=CD1
DYEAR=2018
DGENRE=Blues
TTITLE0=Rev. Shawn Amos - 2017
TTITLE1=Smoky Greenwell - Dirt Road Blues
TTITLE2=Cameo Blues Band - Crossroads
TTITLE3=The Bluesbones - A Better Life
TTITLE4=The Shadows - Wintertime Blues
TTITLE5=Betho Ieesus - Edu Loved The Blues
TTITLE6=The Scandaleros - Here We Go
TTITLE7=Gurf Morlix - Your Picture
TTITLE8=Johnny Max - Blind Leading The Blind
TTITLE9=John Ginty - Black Cat
TTITLE10=Jan Gerfast - Worried Mind
TTITLE11=Mark Cole - Love Will Make You Blind
TTITLE12=Lew Jetton and 61 South - What's Wrong
TTITLE13=Gino Matteo - Take A Chance On Me
TTITLE14=Jon Tiven - Never Come Sunrise
TTITLE15=The Theory - Take Me Away
TTITLE16=Joe Rusi - Blues Don't Like To Come Out Before Midnight
TTITLE17=Rockwell Avenue Blues Band - Hey Big Bill
EXTD=
EXTT0=
EXTT1=
EXTT2=
EXTT3=
EXTT4=
EXTT5=
EXTT6=
EXTT7=
EXTT8=
EXTT9=
EXTT10=
EXTT11=
EXTT12=
EXTT13=
EXTT14=
EXTT15=
EXTT16=
EXTT17=
PLAYORDER=
